<?xml version="1.0" encoding="iso-8859-1"?>
<!-- Generator: Adobe Illustrator 19.0.0, SVG Export Plug-In . SVG Version: 6.00 Build 0)  -->
<svg version="1.1" id="Layer_1" xmlns="http://www.w3.org/2000/svg" xmlns:xlink="http://www.w3.org/1999/xlink" x="0px" y="0px"
	 viewBox="0 0 480 480" style="enable-background:new 0 0 480 480;" xml:space="preserve">
<g>
	<g>
		<path d="M394.928,247.408C397.896,246.24,400,243.384,400,240V56c0-3.464-2.224-6.528-5.504-7.6
			c-3.296-1.08-6.888,0.08-8.944,2.872L306.24,159.416L247.48,5.152C246.296,2.048,243.32,0,240,0s-6.296,2.048-7.48,5.152
			l-58.76,154.264L94.456,51.272C92.4,48.48,88.8,47.312,85.504,48.4C82.224,49.472,80,52.536,80,56v184
			c0,3.376,2.104,6.24,5.072,7.408C76.424,267.968,72,289.64,72,312c0,92.64,75.368,168,168,168s168-75.36,168-168
			C408,289.64,403.576,267.968,394.928,247.408z M388.784,281.448L344,259.056V248h33.744
			C382.792,258.808,386.416,270,388.784,281.448z M96,80.44l73.544,100.296c1.736,2.352,4.56,3.568,7.52,3.2
			c2.904-0.392,5.36-2.344,6.408-5.08L240,30.472l56.52,148.376c1.048,2.736,3.504,4.688,6.408,5.08
			c2.968,0.384,5.792-0.84,7.52-3.2L384,80.44V232h-1.256H97.256H96V80.44z M240,272.944l38.832,19.416L265.584,352h-51.168
			l-13.248-59.64L240,272.944z M192,279.056l-40-20V248h80v11.056L192,279.056z M248,259.056V248h80v11.056l-40,20L248,259.056z
			 M102.256,248H136v11.056l-44.784,22.392C93.592,270,97.208,258.808,102.256,248z M161.68,442.024
			c-17.848-10.792-33.304-25.088-45.384-42.024h50.64L161.68,442.024z M106.184,384C94.6,362.552,88,338.04,88,312
			c0-3.824,0.336-7.584,0.616-11.36L144,272.944l41.016,20.504l14.224,64L172.688,384H106.184z M240,464
			c-22.568,0-43.92-5.08-63.2-13.936l6.792-54.352L211.312,368h57.376l27.712,27.712l6.792,54.352
			C283.92,458.92,262.568,464,240,464z M318.312,442.024L313.064,400h50.64C351.624,416.936,336.168,431.232,318.312,442.024z
			 M373.816,384h-66.504l-26.552-26.552l14.224-64L336,272.944l55.384,27.688c0.28,3.784,0.616,7.544,0.616,11.368
			C392,338.04,385.4,362.552,373.816,384z"/>
	</g>
</g>
<g>
	<g>
		<path d="M240,120c-13.464,0-24,14.056-24,32c0,17.944,10.536,32,24,32s24-14.056,24-32C264,134.056,253.464,120,240,120z M240,168
			c-3.264,0-8-6.232-8-16s4.736-16,8-16c3.264,0,8,6.232,8,16S243.264,168,240,168z"/>
	</g>
</g>
<g>
	<g>
		<rect x="256" y="200" width="16" height="16"/>
	</g>
</g>
<g>
	<g>
		<rect x="288" y="200" width="16" height="16"/>
	</g>
</g>
<g>
	<g>
		<rect x="320" y="200" width="16" height="16"/>
	</g>
</g>
<g>
	<g>
		<rect x="352" y="200" width="16" height="16"/>
	</g>
</g>
<g>
	<g>
		<rect x="112" y="200" width="16" height="16"/>
	</g>
</g>
<g>
	<g>
		<rect x="144" y="200" width="16" height="16"/>
	</g>
</g>
<g>
	<g>
		<rect x="176" y="200" width="16" height="16"/>
	</g>
</g>
<g>
	<g>
		<rect x="208" y="200" width="16" height="16"/>
	</g>
</g>
<g>
</g>
<g>
</g>
<g>
</g>
<g>
</g>
<g>
</g>
<g>
</g>
<g>
</g>
<g>
</g>
<g>
</g>
<g>
</g>
<g>
</g>
<g>
</g>
<g>
</g>
<g>
</g>
<g>
</g>
</svg>
